<svg aria-hidden="true" style="position: absolute; width: 0; height: 0; overflow: hidden;" version="1.1" xmlns="http://www.w3.org/2000/svg" xmlns:xlink="http://www.w3.org/1999/xlink">
<defs>
<symbol id="icon-html" viewBox="0 0 28 32">
<path fill="#e44d26" style="fill: var(--color1, #e44d26)" d="M2.563 28.769l-2.563-28.769h28.179l-2.563 28.753-11.55 3.2z"></path>
<path fill="#f16529" style="fill: var(--color2, #f16529)" d="M14.089 29.507v-27.146h11.518l-2.198 24.544z"></path>
<path fill="#ebebeb" style="fill: var(--color3, #ebebeb)" d="M5.235 5.88h8.854v3.526h-4.986l0.326 3.612h4.66v3.518h-7.891zM6.353 18.307h3.542l0.249 2.819 3.946 1.056v3.682l-7.239-2.019z"></path>
<path fill="#fff" style="fill: var(--color4, #fff)" d="M22.913 5.88h-8.839v3.526h8.513zM22.268 13.017h-8.194v3.526h4.35l-0.412 4.583-3.938 1.056v3.666l7.223-2.004z"></path>
</symbol>
<symbol id="icon-sass" viewBox="0 0 43 32">
<path fill="#cd6799" style="fill: var(--color5, #cd6799)" d="M36.738 18.393c-1.489 0.008-2.782 0.366-3.866 0.896-0.397-0.787-0.795-1.489-0.865-2.003-0.078-0.6-0.171-0.966-0.078-1.683s0.514-1.738 0.507-1.816-0.094-0.444-0.951-0.452c-0.857-0.008-1.598 0.164-1.683 0.39s-0.249 0.74-0.358 1.27c-0.148 0.779-1.715 3.562-2.611 5.019-0.288-0.569-0.538-1.068-0.592-1.465-0.078-0.6-0.171-0.966-0.078-1.683s0.514-1.738 0.507-1.816c-0.008-0.078-0.094-0.444-0.951-0.452s-1.598 0.164-1.683 0.39c-0.086 0.226-0.179 0.756-0.358 1.27s-2.26 5.159-2.806 6.359c-0.281 0.616-0.522 1.107-0.694 1.442 0 0 0 0 0 0s-0.008 0.023-0.031 0.062c-0.148 0.288-0.234 0.444-0.234 0.444s0 0 0 0.008c-0.117 0.21-0.242 0.405-0.304 0.405-0.047 0-0.133-0.561 0.016-1.325 0.312-1.613 1.052-4.123 1.044-4.208 0-0.047 0.14-0.483-0.483-0.709-0.608-0.226-0.826 0.148-0.881 0.148s-0.094 0.133-0.094 0.133 0.678-2.821-1.294-2.821c-1.231 0-2.93 1.348-3.772 2.564-0.53 0.288-1.66 0.904-2.868 1.567-0.46 0.257-0.935 0.514-1.379 0.756-0.031-0.031-0.062-0.070-0.094-0.101-2.385-2.548-6.796-4.349-6.609-7.77 0.070-1.247 0.499-4.52 8.472-8.495 6.562-3.234 11.784-2.338 12.688-0.351 1.294 2.837-2.798 8.105-9.578 8.869-2.587 0.288-3.944-0.709-4.286-1.083-0.358-0.39-0.413-0.413-0.546-0.335-0.218 0.117-0.078 0.468 0 0.67 0.203 0.53 1.037 1.465 2.447 1.925 1.247 0.405 4.279 0.631 7.949-0.787 4.107-1.59 7.318-6.009 6.375-9.711-0.943-3.756-7.178-4.996-13.077-2.899-3.507 1.247-7.31 3.211-10.046 5.767-3.25 3.039-3.764 5.681-3.554 6.788 0.756 3.928 6.172 6.484 8.339 8.378-0.109 0.062-0.21 0.117-0.296 0.164-1.083 0.538-5.214 2.697-6.243 4.98-1.169 2.587 0.187 4.442 1.083 4.692 2.782 0.772 5.642-0.616 7.178-2.907s1.348-5.268 0.639-6.632c-0.008-0.016-0.016-0.031-0.031-0.047 0.281-0.164 0.569-0.335 0.85-0.499 0.553-0.327 1.099-0.631 1.566-0.881-0.265 0.725-0.46 1.59-0.553 2.837-0.117 1.465 0.483 3.367 1.27 4.115 0.351 0.327 0.764 0.335 1.029 0.335 0.92 0 1.333-0.764 1.792-1.668 0.561-1.107 1.068-2.393 1.068-2.393s-0.631 3.476 1.083 3.476c0.623 0 1.255-0.811 1.535-1.224 0 0.008 0 0.008 0 0.008s0.016-0.023 0.047-0.078c0.062-0.101 0.101-0.164 0.101-0.164s0-0.008 0-0.016c0.249-0.436 0.811-1.426 1.644-3.071 1.075-2.12 2.112-4.77 2.112-4.77s0.094 0.647 0.413 1.722c0.187 0.631 0.577 1.325 0.888 1.995-0.249 0.351-0.405 0.546-0.405 0.546s0 0 0.008 0.008c-0.203 0.265-0.421 0.553-0.662 0.834-0.849 1.013-1.863 2.174-2.003 2.509-0.164 0.397-0.125 0.686 0.187 0.92 0.226 0.171 0.631 0.195 1.044 0.171 0.764-0.055 1.302-0.242 1.567-0.358 0.413-0.148 0.896-0.374 1.348-0.709 0.834-0.616 1.34-1.496 1.294-2.658-0.023-0.639-0.234-1.278-0.491-1.878 0.078-0.109 0.148-0.218 0.226-0.327 1.317-1.925 2.338-4.037 2.338-4.037s0.094 0.647 0.413 1.722c0.156 0.546 0.475 1.138 0.756 1.715-1.239 1.005-2.003 2.174-2.276 2.938-0.491 1.418-0.109 2.057 0.616 2.206 0.327 0.070 0.795-0.086 1.138-0.234 0.436-0.14 0.951-0.382 1.442-0.74 0.834-0.616 1.637-1.473 1.59-2.634-0.023-0.53-0.164-1.052-0.358-1.559 1.052-0.436 2.408-0.678 4.138-0.475 3.71 0.436 4.442 2.751 4.302 3.725s-0.92 1.504-1.177 1.668c-0.257 0.164-0.343 0.218-0.32 0.335 0.031 0.171 0.156 0.164 0.374 0.133 0.304-0.055 1.948-0.787 2.019-2.58 0.117-2.291-2.065-4.793-5.923-4.77zM8.121 28.041c-1.231 1.34-2.946 1.847-3.686 1.418-0.795-0.46-0.483-2.439 1.029-3.858 0.92-0.865 2.104-1.668 2.891-2.159 0.179-0.109 0.444-0.265 0.764-0.46 0.055-0.031 0.086-0.047 0.086-0.047v0c0.062-0.039 0.125-0.078 0.187-0.117 0.553 2.026 0.023 3.811-1.27 5.222zM17.083 21.946c-0.429 1.044-1.325 3.718-1.87 3.569-0.468-0.125-0.756-2.151-0.094-4.154 0.335-1.005 1.044-2.206 1.457-2.673 0.67-0.748 1.411-0.998 1.59-0.694 0.226 0.397-0.818 3.297-1.083 3.951zM24.479 25.485c-0.179 0.094-0.351 0.156-0.429 0.109-0.055-0.031 0.078-0.156 0.078-0.156s0.927-0.998 1.294-1.45c0.21-0.265 0.46-0.577 0.725-0.927 0 0.031 0 0.070 0 0.101 0 1.192-1.153 1.995-1.668 2.322zM30.184 24.183c-0.133-0.094-0.109-0.405 0.335-1.379 0.171-0.382 0.577-1.021 1.27-1.637 0.078 0.249 0.133 0.491 0.125 0.717-0.008 1.504-1.083 2.065-1.73 2.299z"></path>
</symbol>
<symbol id="icon-location" viewBox="0 0 21 32">
<path d="M10.667 0c-5.881 0-10.667 4.988-10.667 11.122 0 7.708 10.677 20.878 10.677 20.878s10.656-13.547 10.656-20.878c0-6.133-4.786-11.122-10.667-11.122zM13.884 14.379c-0.889 0.924-2.052 1.387-3.218 1.387-1.266-0.002-2.408-0.534-3.216-1.385l-0.002-0.002c-1.778-1.849-1.778-4.86 0-6.709 0.809-0.854 1.951-1.385 3.218-1.385s2.409 0.531 3.216 1.383l0.002 0.002c1.778 1.849 1.778 4.86 0 6.709z"></path>
</symbol>
<symbol id="icon-star" viewBox="0 0 32 32">
<path d="M16 23l-9 6 4-10-9-6h10l4-10 4 10h10l-9 6 4 10z"></path>
</symbol>
<symbol id="icon-telegram" viewBox="0 0 32 32">
<path d="M16 0c-8.838 0-16 7.162-16 16s7.162 16 16 16 16-7.163 16-16-7.163-16-16-16zM23.863 10.969l-2.625 12.369c-0.181 0.881-0.712 1.087-1.45 0.681l-4-2.956-1.919 1.869c-0.225 0.219-0.4 0.4-0.8 0.4-0.519 0-0.431-0.194-0.606-0.688l-1.363-4.475-3.956-1.231c-0.856-0.262-0.862-0.85 0.194-1.269l15.412-5.95c0.7-0.319 1.381 0.169 1.113 1.25z"></path>
</symbol>
<symbol id="icon-github" viewBox="0 0 32 32">
<path d="M16 0.395c-8.836 0-16 7.163-16 16 0 7.069 4.585 13.067 10.942 15.182 0.8 0.148 1.094-0.347 1.094-0.77 0-0.381-0.015-1.642-0.022-2.979-4.452 0.968-5.391-1.888-5.391-1.888-0.728-1.849-1.776-2.341-1.776-2.341-1.452-0.993 0.11-0.973 0.11-0.973 1.606 0.113 2.452 1.649 2.452 1.649 1.427 2.446 3.743 1.739 4.656 1.33 0.143-1.034 0.558-1.74 1.016-2.14-3.554-0.404-7.29-1.777-7.29-7.907 0-1.747 0.625-3.174 1.649-4.295-0.166-0.403-0.714-2.030 0.155-4.234 0 0 1.344-0.43 4.401 1.64 1.276-0.355 2.645-0.532 4.005-0.539 1.359 0.006 2.729 0.184 4.008 0.539 3.054-2.070 4.395-1.64 4.395-1.64 0.871 2.204 0.323 3.831 0.157 4.234 1.026 1.12 1.647 2.548 1.647 4.295 0 6.145-3.743 7.498-7.306 7.895 0.574 0.497 1.085 1.47 1.085 2.963 0 2.141-0.019 3.864-0.019 4.391 0 0.426 0.288 0.925 1.099 0.768 6.354-2.118 10.933-8.113 10.933-15.18 0-8.837-7.164-16-16-16z"></path>
</symbol>
</defs>
</svg>
